<svg xmlns="http://www.w3.org/2000/svg" viewBox="0 0 40 40" x="0px" y="0px"><path fill="#000000" fill-rule="evenodd" d="M113.900372,11.7790521 C113.966651,11.5312122 114.001987,11.2707263 114.001987,11.0019873 C114.001987,9.34513306 112.658842,8.00198731 111.001987,8.00198731 C109.345133,8.00198731 108.001987,9.34513306 108.001987,11.0019873 C108.001987,12.6588416 109.345133,14.0019873 111.001987,14.0019873 C111.270726,14.0019873 111.531212,13.9666514 111.779052,13.9003725 L109.93934,12.0606602 C109.353553,11.4748737 109.353553,10.5251263 109.93934,9.93933983 C110.525126,9.35355339 111.474874,9.35355339 112.06066,9.93933983 L113.900372,11.7790521 Z M128.221578,13.8997427 C128.470121,13.9664276 128.731405,14.0019873 129.000994,14.0019873 C130.657848,14.0019873 132.000994,12.6588416 132.000994,11.0019873 C132.000994,9.34513306 130.657848,8.00198731 129.000994,8.00198731 C127.344139,8.00198731 126.000994,9.34513306 126.000994,11.0019873 C126.000994,11.269876 126.036106,11.5295638 126.10198,11.7766993 L127.93934,9.93933983 C128.525126,9.35355339 129.474874,9.35355339 130.06066,9.93933983 C130.646447,10.5251263 130.646447,11.4748737 130.06066,12.0606602 L128.221578,13.8997427 Z M118.5,27.403203 C117.60412,27.922129 117.00149,28.8911855 117.00149,30.0009937 C117.00149,31.6578479 118.344636,33.0009937 120.00149,33.0009937 C121.658345,33.0009937 123.00149,31.6578479 123.00149,30.0009937 C123.00149,28.889955 122.397524,27.9199803 121.5,27.4014786 L121.5,30 C121.5,30.8284271 120.828427,31.5 120,31.5 C119.171573,31.5 118.5,30.8284271 118.5,30 L118.5,27.403203 Z M104,8.0042577 C104,5.79276724 105.789028,4 108.004258,4 L131.995742,4 C134.207233,4 136,5.78902751 136,8.0042577 L136,31.9957423 C136,34.2072328 134.210972,36 131.995742,36 L108.004258,36 C105.792767,36 104,34.2109725 104,31.9957423 L104,8.0042577 Z M119.5,21.125 L119.5,29.875 C119.5,30.220178 119.723858,30.5 120,30.5 C120.276142,30.5 120.5,30.220178 120.5,29.875 L120.5,21.125 C120.5,20.779822 120.276142,20.5 120,20.5 C119.723858,20.5 119.5,20.779822 119.5,21.125 Z M121.646447,17.6464466 C121.451184,17.8417088 121.451184,18.1582912 121.646447,18.3535534 C121.841709,18.5488155 122.158291,18.5488155 122.353553,18.3535534 L129.353553,11.3535534 C129.548816,11.1582912 129.548816,10.8417088 129.353553,10.6464466 C129.158291,10.4511845 128.841709,10.4511845 128.646447,10.6464466 L121.646447,17.6464466 Z M117.646447,18.3535534 C117.841709,18.5488155 118.158291,18.5488155 118.353553,18.3535534 C118.548816,18.1582912 118.548816,17.8417088 118.353553,17.6464466 L111.353553,10.6464466 C111.158291,10.4511845 110.841709,10.4511845 110.646447,10.6464466 C110.451184,10.8417088 110.451184,11.1582912 110.646447,11.3535534 L117.646447,18.3535534 Z" transform="translate(-100)"></path></svg>