<svg xmlns="http://www.w3.org/2000/svg" viewBox="0 0 40 40" x="0px" y="0px"><path fill="#000000" fill-rule="evenodd" d="M116.685623,14.5643022 L119.06066,16.9393398 C119.646447,17.5251263 119.646447,18.4748737 119.06066,19.0606602 C118.474874,19.6464466 117.525126,19.6464466 116.93934,19.0606602 L114.564302,16.6856226 C114.08437,16.8894164 113.556427,17.0021529 113.002153,17.0021529 C110.793014,17.0021529 109.002153,15.2112919 109.002153,13.0021529 C109.002153,10.7930139 110.793014,9.00215292 113.002153,9.00215292 C115.211292,9.00215292 117.002153,10.7930139 117.002153,13.0021529 C117.002153,13.5564268 116.889416,14.0843696 116.685623,14.5643022 Z M115.900372,13.7790521 C115.966651,13.5312122 116.001987,13.2707263 116.001987,13.0019873 C116.001987,11.3451331 114.658842,10.0019873 113.001987,10.0019873 C111.345133,10.0019873 110.001987,11.3451331 110.001987,13.0019873 C110.001987,14.6588416 111.345133,16.0019873 113.001987,16.0019873 C113.270726,16.0019873 113.531212,15.9666514 113.779052,15.9003725 L111.93934,14.0606602 C111.353553,13.4748737 111.353553,12.5251263 111.93934,11.9393398 C112.525126,11.3535534 113.474874,11.3535534 114.06066,11.9393398 L115.900372,13.7790521 Z M125.436686,16.6846347 L123.06066,19.0606602 C122.474874,19.6464466 121.525126,19.6464466 120.93934,19.0606602 C120.353553,18.4748737 120.353553,17.5251263 120.93934,16.9393398 L123.316703,14.5619767 C123.113532,14.0826643 123.001159,13.5555317 123.001159,13.0021529 C123.001159,10.7930139 124.79202,9.00215292 127.001159,9.00215292 C129.210298,9.00215292 131.001159,10.7930139 131.001159,13.0021529 C131.001159,15.2112919 129.210298,17.0021529 127.001159,17.0021529 C126.44599,17.0021529 125.917238,16.8890521 125.436686,16.6846347 Z M126.221578,15.8997427 C126.470121,15.9664276 126.731405,16.0019873 127.000994,16.0019873 C128.657848,16.0019873 130.000994,14.6588416 130.000994,13.0019873 C130.000994,11.3451331 128.657848,10.0019873 127.000994,10.0019873 C125.344139,10.0019873 124.000994,11.3451331 124.000994,13.0019873 C124.000994,13.269876 124.036106,13.5295638 124.10198,13.7766993 L125.93934,11.9393398 C126.525126,11.3535534 127.474874,11.3535534 128.06066,11.9393398 C128.646447,12.5251263 128.646447,13.4748737 128.06066,14.0606602 L126.221578,15.8997427 Z M121.5,24.2912479 C122.966792,24.8842229 124.001656,26.3218384 124.001656,28.0011593 C124.001656,30.2102983 122.210795,32.0011593 120.001656,32.0011593 C117.792517,32.0011593 116.001656,30.2102983 116.001656,28.0011593 C116.001656,26.3231027 117.034962,24.8863877 118.5,24.2925886 L118.5,21 C118.5,20.1715729 119.171573,19.5 120,19.5 C120.828427,19.5 121.5,20.1715729 121.5,21 L121.5,24.2912479 Z M118.5,25.403203 C117.60412,25.922129 117.00149,26.8911855 117.00149,28.0009937 C117.00149,29.6578479 118.344636,31.0009937 120.00149,31.0009937 C121.658345,31.0009937 123.00149,29.6578479 123.00149,28.0009937 C123.00149,26.889955 122.397524,25.9199803 121.5,25.4014786 L121.5,28 C121.5,28.8284271 120.828427,29.5 120,29.5 C119.171573,29.5 118.5,28.8284271 118.5,28 L118.5,25.403203 Z M104,8.0042577 C104,5.79276724 105.789028,4 108.004258,4 L131.995742,4 C134.207233,4 136,5.78902751 136,8.0042577 L136,31.9957423 C136,34.2072328 134.210972,36 131.995742,36 L108.004258,36 C105.792767,36 104,34.2109725 104,31.9957423 L104,8.0042577 Z M106.002319,7.99356284 L106.002319,32.0110742 C106.002319,33.102421 106.893829,34.0023185 107.993563,34.0023185 L132.011074,34.0023185 C133.102421,34.0023185 134.002319,33.1108081 134.002319,32.0110742 L134.002319,7.99356284 C134.002319,6.90221605 133.110808,6.00231853 132.011074,6.00231853 L107.993563,6.00231853 C106.902216,6.00231853 106.002319,6.89382898 106.002319,7.99356284 Z M119.5,21 L119.5,28 C119.5,28.2761424 119.723858,28.5 120,28.5 C120.276142,28.5 120.5,28.2761424 120.5,28 L120.5,21 C120.5,20.7238576 120.276142,20.5 120,20.5 C119.723858,20.5 119.5,20.7238576 119.5,21 Z M121.646447,17.6464466 C121.451184,17.8417088 121.451184,18.1582912 121.646447,18.3535534 C121.841709,18.5488155 122.158291,18.5488155 122.353553,18.3535534 L127.353553,13.3535534 C127.548816,13.1582912 127.548816,12.8417088 127.353553,12.6464466 C127.158291,12.4511845 126.841709,12.4511845 126.646447,12.6464466 L121.646447,17.6464466 Z M117.646447,18.3535534 C117.841709,18.5488155 118.158291,18.5488155 118.353553,18.3535534 C118.548816,18.1582912 118.548816,17.8417088 118.353553,17.6464466 L113.353553,12.6464466 C113.158291,12.4511845 112.841709,12.4511845 112.646447,12.6464466 C112.451184,12.8417088 112.451184,13.1582912 112.646447,13.3535534 L117.646447,18.3535534 Z" transform="translate(-100)"></path></svg>